<?xml version="1.0" standalone="no"?>
<!DOCTYPE svg PUBLIC "-//W3C//DTD SVG 20010904//EN"
 "http://www.w3.org/TR/2001/REC-SVG-20010904/DTD/svg10.dtd">
<svg version="1.0" xmlns="http://www.w3.org/2000/svg"
 width="500.000000pt" height="500.000000pt" viewBox="0 0 500.000000 500.000000"
 preserveAspectRatio="xMidYMid meet">

<g transform="translate(0.000000,500.000000) scale(0.100000,-0.100000)"
fill="#260048" stroke="none">
<path d="M2345 3689 c-91 -13 -245 -66 -330 -114 -244 -140 -426 -378 -503
-663 -24 -89 -26 -113 -26 -287 0 -175 2 -197 27 -287 63 -230 193 -434 361
-567 35 -28 67 -51 70 -51 3 0 6 180 6 400 l0 400 185 0 185 0 0 -195 0 -195
100 0 100 0 0 475 0 476 -97 -3 -98 -3 -3 -192 -2 -193 -185 0 -185 0 0 195 0
196 -97 -3 -98 -3 -5 -489 -5 -489 -37 74 c-133 267 -144 569 -29 846 150 364
528 598 893 553 78 -9 199 -42 271 -74 15 -7 17 -3 17 32 0 93 -5 100 -89 126
-135 43 -284 55 -426 35z"/>
</g>
<g transform="translate(0.000000,500.000000) scale(0.100000,-0.100000)"
fill="rgb(168, 85, 247)" stroke="none">
<path d="M2985 3118 l0 -433 -182 -3 -183 -2 0 -75 0 -75 183 -2 182 -3 3
-197 2 -198 90 0 90 0 0 534 c0 316 4 537 9 541 23 13 117 -170 158 -306 26
-89 28 -104 27 -279 0 -173 -2 -191 -28 -274 -99 -324 -330 -561 -633 -648
-65 -19 -102 -23 -218 -23 -159 1 -244 19 -367 80 l-69 34 3 -67 3 -67 90 -34
c136 -50 227 -64 380 -58 156 6 261 33 399 104 487 252 696 870 473 1400 -64
152 -192 319 -325 425 -40 32 -76 58 -80 58 -4 0 -7 -195 -7 -432z"/>
</g>
</svg>
